<svg width="27" height="27" viewBox="0 0 27 27" fill="none" xmlns="http://www.w3.org/2000/svg">
<path d="M18.2408 5.80702L2.81908 13.3327C2.16937 13.6497 1.76135 14.2958 1.75416 15.0187C1.74703 15.7416 2.1422 16.3956 2.78548 16.7254L7.86596 19.3305L12.4386 14.1535C12.649 13.9152 13.0127 13.8927 13.251 14.1031C13.4892 14.3135 13.5118 14.6773 13.3013 14.9155L8.72873 20.0925L11.9413 24.8123C12.3481 25.41 13.0459 25.7214 13.7624 25.6249C14.4803 25.5283 15.07 25.0426 15.304 24.3599L20.8672 8.12674C21.1205 7.38766 20.9141 6.60725 20.3285 6.09003C19.7429 5.57282 18.943 5.46432 18.2408 5.80702Z" fill="white"/>
</svg>
