<svg width="26" height="26" viewBox="0 0 26 26" fill="none" xmlns="http://www.w3.org/2000/svg">
<path d="M19.4992 5.04102C19.2131 5.04102 18.9335 5.12584 18.6956 5.28477C18.4578 5.44369 18.2725 5.66959 18.163 5.93387C18.0535 6.19816 18.0248 6.48896 18.0806 6.76953C18.1364 7.05009 18.2742 7.30781 18.4764 7.51009C18.6787 7.71236 18.9365 7.85011 19.217 7.90592C19.4976 7.96173 19.7884 7.93309 20.0527 7.82362C20.317 7.71415 20.5428 7.52876 20.7018 7.29091C20.8607 7.05306 20.9455 6.77342 20.9455 6.48736C20.9455 6.10377 20.7931 5.73588 20.5219 5.46464C20.2506 5.1934 19.8828 5.04102 19.4992 5.04102Z" fill="white"/>
<path d="M13.0854 6.88965C11.8873 6.88965 10.716 7.24495 9.71972 7.91062C8.72348 8.57628 7.94705 9.52242 7.48853 10.6294C7.03001 11.7364 6.90999 12.9544 7.14374 14.1296C7.37749 15.3047 7.95446 16.3842 8.8017 17.2314C9.64893 18.0786 10.7284 18.6556 11.9036 18.8894C13.0787 19.1231 14.2968 19.0031 15.4037 18.5446C16.5107 18.0861 17.4569 17.3096 18.1226 16.3134C18.7882 15.3171 19.1435 14.1459 19.1435 12.9477C19.1435 12.1522 18.9868 11.3644 18.6823 10.6294C18.3779 9.89439 17.9317 9.22656 17.3692 8.66402C16.8066 8.10148 16.1387 7.65524 15.4037 7.35079C14.6687 7.04635 13.881 6.88965 13.0854 6.88965ZM13.0854 16.8244C12.3192 16.8221 11.5709 16.5927 10.9349 16.1653C10.299 15.7379 9.80394 15.1316 9.51234 14.4231C9.22074 13.7145 9.14564 12.9354 9.29656 12.1842C9.44748 11.4329 9.81761 10.7433 10.3602 10.2023C10.9029 9.66134 11.5937 9.2933 12.3453 9.14467C13.097 8.99605 13.8759 9.0735 14.5835 9.36727C15.2912 9.66103 15.896 10.1579 16.3215 10.7952C16.7469 11.4324 16.974 12.1815 16.974 12.9477C16.9709 13.977 16.5598 14.963 15.8309 15.6897C15.102 16.4163 14.1147 16.8244 13.0854 16.8244Z" fill="white"/>
<path d="M17.8986 25.2412H8.08244C7.11251 25.2412 6.15204 25.0502 5.25595 24.679C4.35986 24.3078 3.54569 23.7638 2.85985 23.078C2.17401 22.3921 1.62994 21.5779 1.25876 20.6818C0.887589 19.7857 0.696533 18.8253 0.696533 17.8554V8.03917C0.696533 6.08032 1.47473 4.2017 2.85985 2.81659C4.24497 1.43147 6.12359 0.65332 8.08244 0.65332H17.8986C19.8574 0.65332 21.7361 1.43147 23.1212 2.81659C24.5063 4.2017 25.2844 6.08032 25.2844 8.03917V17.8554C25.2844 18.8253 25.0934 19.7857 24.7223 20.6818C24.3511 21.5779 23.807 22.3921 23.1212 23.078C22.4353 23.7638 21.6211 24.3078 20.725 24.679C19.8289 25.0502 18.8685 25.2412 17.8986 25.2412ZM8.08244 2.96511C6.73671 2.96511 5.44609 3.4997 4.49451 4.45127C3.54294 5.40284 3.00833 6.69345 3.00833 8.03917V17.8554C3.00521 18.5237 3.13419 19.1861 3.38778 19.8044C3.64138 20.4228 4.01464 20.9849 4.48612 21.4586C4.9576 21.9323 5.51802 22.3082 6.13518 22.5647C6.75235 22.8211 7.4141 22.9532 8.08244 22.9531H17.8986C18.5649 22.9531 19.2247 22.8219 19.8403 22.5669C20.456 22.3119 21.0153 21.9382 21.4865 21.467C21.9577 20.9958 22.3314 20.4365 22.5864 19.8208C22.8414 19.2052 22.9727 18.5454 22.9727 17.8791V8.03917C22.9727 6.69345 22.4381 5.40284 21.4865 4.45127C20.5349 3.4997 19.2443 2.96511 17.8986 2.96511H8.08244Z" fill="white"/>
</svg>
