<svg width="43" height="27" viewBox="0 0 43 27" fill="none" xmlns="http://www.w3.org/2000/svg">
<path d="M33.6812 13.0482L30.6187 19.9388C30.5583 20.0731 30.4605 20.1872 30.3369 20.2673C30.2133 20.3474 30.0693 20.3902 29.922 20.3905C29.8681 20.3892 29.8144 20.3841 29.7612 20.3752C29.5897 20.3383 29.436 20.2437 29.3259 20.1071C29.2158 19.9706 29.156 19.8003 29.1564 19.6249V15.0311H26.8595C26.7318 15.0309 26.6062 14.9987 26.4941 14.9374C26.382 14.8762 26.287 14.788 26.2178 14.6807C26.1486 14.5734 26.1072 14.4505 26.0976 14.3231C26.088 14.1958 26.1104 14.0681 26.1628 13.9516L29.2253 7.06098C29.2957 6.90032 29.4197 6.76904 29.576 6.68947C29.7323 6.6099 29.9114 6.58697 30.0828 6.62457C30.2543 6.66141 30.408 6.75604 30.5181 6.89262C30.6282 7.0292 30.688 7.19945 30.6876 7.37488V11.9686H32.9845C33.1122 11.9689 33.2378 12.0011 33.3499 12.0623C33.4619 12.1235 33.5569 12.2118 33.6262 12.3191C33.6954 12.4264 33.7367 12.5493 33.7463 12.6766C33.756 12.804 33.7336 12.9317 33.6812 13.0482Z" fill="#2F4BDF"/>
<path d="M29.9219 0.484375H9.25C8.84482 0.48738 8.45708 0.649673 8.17056 0.936189C7.88405 1.22271 7.72176 1.61044 7.71875 2.01562C7.71996 2.42137 7.88168 2.81014 8.16858 3.09704C8.45548 3.38395 8.84426 3.54566 9.25 3.54688C9.45306 3.54688 9.6478 3.62754 9.79138 3.77112C9.93496 3.9147 10.0156 4.10944 10.0156 4.3125C10.0156 4.51556 9.93496 4.7103 9.79138 4.85388C9.6478 4.99746 9.45306 5.07812 9.25 5.07812H4.65625C4.25107 5.08113 3.86333 5.24342 3.57681 5.52994C3.2903 5.81645 3.12801 6.20419 3.125 6.60938C3.12621 7.01512 3.28793 7.40389 3.57483 7.69079C3.86173 7.9777 4.25051 8.13941 4.65625 8.14062H16.8756C17.0024 8.12996 17.1299 8.15108 17.2465 8.20205C17.3631 8.25302 17.4651 8.33224 17.5434 8.43256C17.6217 8.53288 17.6737 8.65112 17.6948 8.7766C17.7159 8.90209 17.7054 9.03085 17.6642 9.15125C17.4056 9.89066 17.2135 10.6516 17.09 11.4252C17.0584 11.6153 16.9568 11.7867 16.8052 11.9057C16.6536 12.0248 16.463 12.0827 16.2708 12.0683C16.1606 12.0561 16.0539 12.0223 15.9569 11.9688H10.7812C10.3761 11.9718 9.98833 12.134 9.70181 12.4206C9.4153 12.7071 9.25301 13.0948 9.25 13.5C9.25121 13.9057 9.41293 14.2945 9.69983 14.5814C9.98673 14.8683 10.3755 15.03 10.7812 15.0312H16.1483C16.1866 15.0236 16.2325 15.0159 16.2784 15.0083C16.467 14.9884 16.6562 15.0404 16.8081 15.154C16.96 15.2675 17.0634 15.4343 17.0977 15.6208C17.2204 16.3787 17.41 17.1243 17.6642 17.8488C17.7193 18.003 17.7237 18.1708 17.6769 18.3278C17.6301 18.4847 17.5345 18.6227 17.4039 18.7216C17.3205 18.7841 17.2251 18.8286 17.1236 18.8523C17.0221 18.876 16.9168 18.8784 16.8144 18.8594H4.65625C4.25051 18.8606 3.86173 19.0223 3.57483 19.3092C3.28793 19.5961 3.12621 19.9849 3.125 20.3906C3.12801 20.7958 3.2903 21.1835 3.57681 21.4701C3.86333 21.7566 4.25107 21.9189 4.65625 21.9219H9.25C9.45306 21.9219 9.6478 22.0025 9.79138 22.1461C9.93496 22.2897 10.0156 22.4844 10.0156 22.6875C10.0156 22.8906 9.93496 23.0853 9.79138 23.2289C9.6478 23.3725 9.45306 23.4531 9.25 23.4531C8.84426 23.4543 8.45548 23.6161 8.16858 23.903C7.88168 24.1899 7.71996 24.5786 7.71875 24.9844C7.72176 25.3896 7.88405 25.7773 8.17056 26.0638C8.45708 26.3503 8.84482 26.5126 9.25 26.5156H29.9219C33.3738 26.5156 36.6844 25.1443 39.1253 22.7034C41.5662 20.2625 42.9375 16.952 42.9375 13.5C42.9375 10.048 41.5662 6.73747 39.1253 4.29656C36.6844 1.85566 33.3738 0.484375 29.9219 0.484375ZM29.9219 23.4531C27.9533 23.4531 26.029 22.8694 24.3922 21.7757C22.7554 20.6821 21.4797 19.1276 20.7264 17.3089C19.9731 15.4902 19.776 13.489 20.16 11.5582C20.544 9.62752 21.492 7.85405 22.884 6.46208C24.2759 5.07011 26.0494 4.12217 27.9801 3.73812C29.9108 3.35408 31.9121 3.55118 33.7308 4.30451C35.5495 5.05784 37.1039 6.33356 38.1976 7.97034C39.2913 9.60712 39.875 11.5315 39.875 13.5C39.8726 16.139 38.8232 18.6692 36.9571 20.5352C35.0911 22.4013 32.5609 23.4507 29.9219 23.4531Z" fill="#2F4BDF"/>
<path d="M3.125 15.0312C3.53111 15.0312 3.92059 14.8699 4.20776 14.5828C4.49492 14.2956 4.65625 13.9061 4.65625 13.5C4.65625 13.0939 4.49492 12.7044 4.20776 12.4172C3.92059 12.1301 3.53111 11.9688 3.125 11.9688H1.59375C1.18764 11.9688 0.798158 12.1301 0.510993 12.4172C0.223828 12.7044 0.0625 13.0939 0.0625 13.5C0.0625 13.9061 0.223828 14.2956 0.510993 14.5828C0.798158 14.8699 1.18764 15.0312 1.59375 15.0312H3.125Z" fill="#2F4BDF"/>
</svg>
